<svg xmlns="http://www.w3.org/2000/svg" viewBox="0 0 500 500"><defs><style>.cls-1{fill:#db8651;}.cls-2{fill:#c4814d;}.cls-3{fill:#f9af72;}.cls-4{fill:#b66e3e;}.cls-5{fill:#dd9355;}.cls-6{fill:#d88044;}.cls-7{fill:#ec9758;}.cls-8{fill:#c29f7e;}.cls-9{fill:#b89876;}.cls-10{fill:#b7936f;}.cls-11,.cls-12,.cls-13{fill:none;stroke:#263238;stroke-miterlimit:10;}.cls-11{stroke-width:2px;}.cls-13{stroke-dasharray:3.99 3.99;}.cls-14{fill:#263238;}.cls-15{fill:#455a64;}</style></defs><title>Empty Cart New</title><g id="Box"><polygon class="cls-1" points="303.32 177.5 260.44 213.2 381.37 248.46 426.26 205.49 303.32 177.5"/><polygon class="cls-1" points="214.39 181.7 260.44 213.2 132.28 254.55 86.72 219.66 214.39 181.7"/><polygon class="cls-2" points="260.44 213.2 260.44 364.73 136.76 404.34 132.31 254.55 260.44 213.2"/><polygon class="cls-3" points="132.31 254.55 136.76 404.34 251.6 440.01 251.6 288.48 132.31 254.55"/><polygon class="cls-4" points="260.44 364.73 376.92 398.25 381.37 248.46 260.44 213.2 260.44 364.73"/><polygon class="cls-5" points="381.37 248.46 376.92 398.25 251.6 440.01 251.6 288.48 381.37 248.46"/><polygon class="cls-6" points="251.6 288.48 279.07 357.21 379.26 319.61 381.37 248.46 251.6 288.48"/><polygon class="cls-7" points="381.37 248.46 413.39 304.7 285.58 347.28 251.6 288.48 381.37 248.46"/><polygon class="cls-8" points="251.6 288.48 251.6 289.24 285.52 347.83 285.58 347.28 251.6 288.48"/><polygon class="cls-8" points="285.52 347.83 413.39 305.33 413.39 304.7 285.58 347.28 285.52 347.83"/><polygon class="cls-9" points="426.26 205.49 426.26 206.11 381.53 248.75 381.37 248.46 426.26 205.49"/><polygon class="cls-10" points="86.72 219.66 86.72 220.09 132.22 254.78 132.31 254.55 86.72 219.66"/><path class="cls-5" d="M251.6,407.33s48.8-10.22,80.89-31.32c37.06-24.36,46.77-56.4,46.77-56.4l-2.34,78.64L251.6,440Z"/><polygon class="cls-3" points="136.76 404.34 136.54 398.25 251.6 407.33 251.6 440.01 136.76 404.34"/><path class="cls-7" d="M285.58,347.28,330,322.35a103.08,103.08,0,0,0,51.38-73.89h0l32,56.24Z"/><path class="cls-1" d="M179.62,239.28l12.5-7.25c24.18-14,26.65-22.72,22.27-50.33h0l46.05,31.5Z"/><polygon class="cls-3" points="136.76 404.34 251.6 436.19 251.6 440.01 136.76 404.34"/><polygon class="cls-5" points="251.6 436.19 377.15 390.73 376.92 398.25 251.6 440.01 251.6 436.19"/><path class="cls-2" d="M260.44,213.2s-8.84,65.38-71.64,57.42l62.8,17.86,8.84-2.72Z"/><circle cx="161.26" cy="347.76" r="7.83"/><circle cx="220.03" cy="359.24" r="7.83"/><path class="cls-11" d="M176.34,367.62a12.17,12.17,0,0,1,24.08,3.49"/><path class="cls-12" d="M232.65,282.63l1.95-.45"/><path class="cls-13" d="M238.42,281c14.85-5.06,27.27-16.77,28.45-30.43,2.59-30.23-34.22-46.92-30.42-81.85,3.63-33.31,38.57-35.69,52.58-31.08,15.47,5.08,10.17,19.95-3.84,18-24.28-3.32-39.55-29.73-28-59.67,8.58-22.31,29.95-30.76,38.73-33.37"/><path class="cls-12" d="M297.83,62.14c1.24-.32,1.95-.45,1.95-.45"/><path class="cls-14" d="M304.63,59.7c-1-3-7.36-1.9-6.11,2S305.59,62.66,304.63,59.7Z"/><path d="M295,58.51c0-1.3,1.86-2.3,4.41-1.84a14.25,14.25,0,0,1,5,2.18,14.15,14.15,0,0,1-5.11,1.82C296.72,60.94,295,59.81,295,58.51Z"/><path class="cls-14" d="M304.41,58.85c-1.32,0-2.65,0-4-.07s-2.65-.11-4-.22c1.32,0,2.65,0,4,.08S303.09,58.75,304.41,58.85Z"/><path class="cls-14" d="M297.61,57.36a10.85,10.85,0,0,1,2.12,1.32,10.59,10.59,0,0,1-1.1-.6A10.41,10.41,0,0,1,297.61,57.36Z"/><path class="cls-14" d="M301.08,58.73c-.33.28-.7.52-1.06.77a11.58,11.58,0,0,1-1.14.65,9.86,9.86,0,0,1,1.06-.77A11.58,11.58,0,0,1,301.08,58.73Z"/><path class="cls-14" d="M301.47,58a2.62,2.62,0,0,1,.53.33,3.13,3.13,0,0,1,.44.45,2.4,2.4,0,0,1-.53-.34A2.29,2.29,0,0,1,301.47,58Z"/><path d="M297.48,66.22c.79,1,2.85.78,4.65-1.09a14.42,14.42,0,0,0,2.75-4.67A14.21,14.21,0,0,0,299.67,62C297.42,63.26,296.67,65.19,297.48,66.22Z"/><path class="cls-14" d="M304.88,60.46c-1.09.77-2.13,1.58-3.18,2.38s-2.09,1.64-3.1,2.5c1.08-.77,2.13-1.58,3.18-2.38S303.86,61.32,304.88,60.46Z"/><path class="cls-14" d="M300.23,65.65c.21-.37.37-.75.54-1.13a10.24,10.24,0,0,0,.4-1.18,9,9,0,0,0-.53,1.13A10.93,10.93,0,0,0,300.23,65.65Z"/><path class="cls-14" d="M302.25,62.5c-.44,0-.88,0-1.32,0a11.47,11.47,0,0,0-1.3.14,9.55,9.55,0,0,0,1.31,0A9.71,9.71,0,0,0,302.25,62.5Z"/><path class="cls-14" d="M303,62.87a2.42,2.42,0,0,0,.23-.58,2.51,2.51,0,0,0,.1-.62,2.85,2.85,0,0,0-.24.58A3.31,3.31,0,0,0,303,62.87Z"/><path class="cls-15" d="M304.63,59.7a1.12,1.12,0,1,1,.72-1.41A1.12,1.12,0,0,1,304.63,59.7Z"/><path class="cls-15" d="M305.32,61.84a1.12,1.12,0,1,1,.72-1.41A1.12,1.12,0,0,1,305.32,61.84Z"/><path class="cls-14" d="M315.54,251.21c-2.23,1.75.2,7.59,3.11,5.31S317.76,249.46,315.54,251.21Z"/><path d="M316.87,260.75c-1.09.32-2.36-1.14-2.6-3.72a16.54,16.54,0,0,1,.61-5.37,14.2,14.2,0,0,1,2.75,4.39C318.48,258.45,318,260.43,316.87,260.75Z"/><path class="cls-14" d="M314.88,251.66c.33,1.27.62,2.55.9,3.84s.55,2.57.78,3.87c-.33-1.27-.61-2.56-.9-3.84S315.11,253,314.88,251.66Z"/><path class="cls-14" d="M315.29,258.61a12,12,0,0,1,.23-1.22c.11-.4.21-.8.36-1.19a12,12,0,0,1-.24,1.22C315.54,257.82,315.43,258.22,315.29,258.61Z"/><path class="cls-14" d="M315.59,254.89a9.71,9.71,0,0,1,.89.81,10.2,10.2,0,0,1,.82.91,9.82,9.82,0,0,1-.9-.81A10.1,10.1,0,0,1,315.59,254.89Z"/><path class="cls-14" d="M314.89,254.72a3.1,3.1,0,0,1,.15-.6,2.45,2.45,0,0,1,.26-.54,3.1,3.1,0,0,1-.15.6A3,3,0,0,1,314.89,254.72Z"/><path d="M322.67,256.25c.66-1.05,0-2.95-2-4.16a11.17,11.17,0,0,0-4.55-1.33,14.75,14.75,0,0,0,2.52,4.58C320.23,257.14,322,257.31,322.67,256.25Z"/><path class="cls-14" d="M316.1,250.76c.9.83,1.83,1.61,2.75,2.39s1.87,1.54,2.83,2.27c-.9-.82-1.83-1.6-2.75-2.38S317.06,251.49,316.1,250.76Z"/><path class="cls-14" d="M321.54,253.77a8,8,0,0,0-1.07-.2,9.77,9.77,0,0,0-1.08-.06,7.76,7.76,0,0,0,1.07.2A7.65,7.65,0,0,0,321.54,253.77Z"/><path class="cls-14" d="M318.44,252.72c.08.43.2.84.32,1.26a10.9,10.9,0,0,0,.43,1.21,12.9,12.9,0,0,0-.32-1.26A12.39,12.39,0,0,0,318.44,252.72Z"/><path class="cls-14" d="M318.57,251.9a2.55,2.55,0,0,0-.54-.06,2,2,0,0,0-.54.08,1.66,1.66,0,0,0,.54.06A2,2,0,0,0,318.57,251.9Z"/><path class="cls-15" d="M315.54,251.21a1.24,1.24,0,0,1-.26,1.56.89.89,0,0,1-1.35-.3,1.23,1.23,0,0,1,.26-1.56A.9.9,0,0,1,315.54,251.21Z"/><path class="cls-15" d="M317.14,250a1.23,1.23,0,0,1-.26,1.56.89.89,0,0,1-1.34-.3,1.23,1.23,0,0,1,.25-1.56A.89.89,0,0,1,317.14,250Z"/><path class="cls-14" d="M223.47,132.3c-3.05-.62-5.25,5.49-1.26,6.29S226.52,132.91,223.47,132.3Z"/><path d="M217.74,140.08c-1.11-.68-1.1-2.74.55-4.74a14.28,14.28,0,0,1,4.33-3.27,14.4,14.4,0,0,1-.91,5.35C220.69,139.8,218.86,140.76,217.74,140.08Z"/><path class="cls-14" d="M222.62,132.07c-.64,1.16-1.33,2.3-2,3.43s-1.39,2.26-2.13,3.36c.64-1.16,1.33-2.29,2-3.43S221.88,133.17,222.62,132.07Z"/><path class="cls-14" d="M218,137.28a11.26,11.26,0,0,1,2.19-1.2,10.44,10.44,0,0,1-1.06.66A10.67,10.67,0,0,1,218,137.28Z"/><path class="cls-14" d="M220.89,134.92c.08.43.11.87.15,1.3a11.45,11.45,0,0,1,0,1.31,9.41,9.41,0,0,1-.15-1.3A11.45,11.45,0,0,1,220.89,134.92Z"/><path class="cls-14" d="M220.44,134.22a3,3,0,0,1,1.15-.46,2.94,2.94,0,0,1-.55.3A2.54,2.54,0,0,1,220.44,134.22Z"/><path d="M225.66,141.72c1.28-.2,2.07-2.1,1.32-4.59a14.43,14.43,0,0,0-2.73-4.68,14.32,14.32,0,0,0-1.23,5.28C223.05,140.33,224.37,141.92,225.66,141.72Z"/><path class="cls-14" d="M224.25,132.45c.14,1.32.33,2.63.53,3.94s.41,2.62.66,3.92c-.14-1.32-.33-2.63-.53-3.94S224.5,133.75,224.25,132.45Z"/><path class="cls-14" d="M226.51,139a10.5,10.5,0,0,0-.73-1,9.05,9.05,0,0,0-.83-.93,10.41,10.41,0,0,0,.72,1A10.52,10.52,0,0,0,226.51,139Z"/><path class="cls-14" d="M224.75,135.75a9.79,9.79,0,0,0-.64,1.14,10.75,10.75,0,0,0-.52,1.21,10.82,10.82,0,0,0,.64-1.15A10.6,10.6,0,0,0,224.75,135.75Z"/><path class="cls-14" d="M225.43,135.28a2.71,2.71,0,0,0-.39-.49,2.64,2.64,0,0,0-.5-.38,3.09,3.09,0,0,0,.4.48A2.34,2.34,0,0,0,225.43,135.28Z"/><path class="cls-15" d="M223.47,132.3a1.12,1.12,0,1,1-.88-1.33A1.13,1.13,0,0,1,223.47,132.3Z"/><path class="cls-15" d="M225.67,132.74a1.12,1.12,0,1,1-.88-1.32A1.12,1.12,0,0,1,225.67,132.74Z"/><path class="cls-14" d="M193,203.78c-2.79,1.39-.78,7.56,2.86,5.75S195.81,202.39,193,203.78Z"/><path d="M193.28,213.44c-1.29.15-2.55-1.49-2.48-4.08a14.36,14.36,0,0,1,1.42-5.23,14.31,14.31,0,0,1,2.56,4.77C195.43,211.42,194.58,213.29,193.28,213.44Z"/><path class="cls-14" d="M192.22,204.13c.21,1.31.36,2.62.52,3.94s.29,2.63.38,4c-.21-1.31-.36-2.62-.52-3.94S192.31,205.45,192.22,204.13Z"/><path class="cls-14" d="M191.76,211.07a10.29,10.29,0,0,1,.43-1.17,9.75,9.75,0,0,1,.56-1.12,9.78,9.78,0,0,1-.43,1.18A10.49,10.49,0,0,1,191.76,211.07Z"/><path class="cls-14" d="M192.6,207.44a11.39,11.39,0,0,1,.91.93c.29.34.57.67.82,1a10.08,10.08,0,0,1-.92-.93A13.07,13.07,0,0,1,192.6,207.44Z"/><path class="cls-14" d="M191.81,207.16a3,3,0,0,1,.63-1.07,2.24,2.24,0,0,1-.25.57A2.28,2.28,0,0,1,191.81,207.16Z"/><path d="M200.54,209.88c.89-.94.34-2.93-1.77-4.43a14.21,14.21,0,0,0-5-2,14.29,14.29,0,0,0,2.27,4.92C197.62,210.38,199.64,210.83,200.54,209.88Z"/><path class="cls-14" d="M193.74,203.43c.92.95,1.88,1.87,2.83,2.79s1.93,1.81,2.93,2.68c-.92-1-1.88-1.87-2.83-2.79S194.74,204.3,193.74,203.43Z"/><path class="cls-14" d="M199.56,207.24c-.39-.15-.79-.25-1.19-.36a10.58,10.58,0,0,0-1.23-.22c.39.15.79.25,1.19.36A10.58,10.58,0,0,0,199.56,207.24Z"/><path class="cls-14" d="M196.15,205.72c0,.44.12.87.2,1.3s.19.85.33,1.27a11.29,11.29,0,0,0-.53-2.57Z"/><path class="cls-14" d="M196.41,204.93a2.69,2.69,0,0,0-.61-.14,2.66,2.66,0,0,0-.63,0,2.69,2.69,0,0,0,.61.14A2.22,2.22,0,0,0,196.41,204.93Z"/><path class="cls-15" d="M193,203.78a1.13,1.13,0,0,1-.51,1.51,1.12,1.12,0,1,1,.51-1.51Z"/><path class="cls-15" d="M195,202.78a1.13,1.13,0,0,1-.51,1.51,1.12,1.12,0,1,1,.51-1.51Z"/><path class="cls-14" d="M216,260.18c-1.26,2.85,4.23,6.31,5.87,2.58S217.23,257.33,216,260.18Z"/><path d="M222.35,267.44c-.9.94-2.91.49-4.52-1.55a14.36,14.36,0,0,1-2.25-4.93,14.14,14.14,0,0,1,5,2C222.71,264.51,223.25,266.5,222.35,267.44Z"/><path class="cls-14" d="M215.58,261c1,.88,1.95,1.79,2.92,2.7s1.9,1.84,2.82,2.8c-1-.88-2-1.79-2.92-2.7S216.49,261.92,215.58,261Z"/><path class="cls-14" d="M219.67,266.6a8.74,8.74,0,0,1-.42-1.18,12,12,0,0,1-.29-1.22,8.28,8.28,0,0,1,.42,1.18A12,12,0,0,1,219.67,266.6Z"/><path class="cls-14" d="M218,263.26a11.4,11.4,0,0,1,1.31.14,9.4,9.4,0,0,1,1.28.27,11.22,11.22,0,0,1-1.3-.13A11.9,11.9,0,0,1,218,263.26Z"/><path class="cls-14" d="M217.21,263.56A2.64,2.64,0,0,1,217,263a2.56,2.56,0,0,1,0-.62,2.59,2.59,0,0,1,.18.6A3.29,3.29,0,0,1,217.21,263.56Z"/><path d="M225.65,260.07c.09-1.3-1.61-2.48-4.2-2.28a14.4,14.4,0,0,0-5.15,1.66,14.13,14.13,0,0,0,4.89,2.33C223.73,262.32,225.57,261.37,225.65,260.07Z"/><path class="cls-14" d="M216.3,259.45c1.32.15,2.64.24,4,.33s2.64.16,4,.19c-1.32-.14-2.64-.23-4-.33S217.62,259.48,216.3,259.45Z"/><path class="cls-14" d="M223.22,258.66a9.83,9.83,0,0,0-1.16.49,11.65,11.65,0,0,0-1.09.61,11.35,11.35,0,0,0,2.25-1.1Z"/><path class="cls-14" d="M219.62,259.67c.31.32.65.59,1,.87a11.6,11.6,0,0,0,1.07.77,11.62,11.62,0,0,0-1-.88C220.34,260.17,220,259.9,219.62,259.67Z"/><path class="cls-14" d="M219.31,258.9a3.66,3.66,0,0,0-.56.28,2.62,2.62,0,0,0-.48.4,2.71,2.71,0,0,0,1-.68Z"/><path class="cls-15" d="M216,260.18a1.13,1.13,0,1,1-1.48.58A1.13,1.13,0,0,1,216,260.18Z"/><path class="cls-15" d="M216.88,258.12a1.12,1.12,0,1,1-1.48.58A1.13,1.13,0,0,1,216.88,258.12Z"/></g></svg>